<svg xmlns="http://www.w3.org/2000/svg" viewBox="0 0 100 100"><circle cx="42.59" cy="57.41" r="41.21" fill="#E44443"/><circle cx="42.59" cy="57.41" r="28.44" fill="#FFFFFF"/><circle cx="42.59" cy="57.41" r="18.13" fill="#E44443"/><circle cx="42.59" cy="57.41" r="7.83" fill="#FFFFFF"/><g fill="#FFFFFF" stroke="#FFFFFF" stroke-width="2.75" stroke-linejoin="round"><polygon points="41.91,56.74 46.92,49.79 50.21,53.08 43.26,58.09"/><polygon points="46.77,49.64 47.29,46.43 55.51,38.21 58.73,37.69 62.31,41.27 61.79,44.49 53.57,52.71 50.36,53.23"/><polygon points="58.35,38.81 82.26,14.90 85.10,17.74 61.19,41.65"/><polygon points="70.38,26.93 70.98,11.09 80.69,1.37 83.08,14.23"/><polygon points="73.07,29.62 88.91,29.02 98.63,19.31 85.77,16.92"/></g><g fill="#141414"><polygon points="41.91,56.74 46.92,49.79 50.21,53.08 43.26,58.09"/><polygon points="46.77,49.64 47.29,46.43 55.51,38.21 58.73,37.69 62.31,41.27 61.79,44.49 53.57,52.71 50.36,53.23"/><polygon points="58.35,38.81 82.26,14.90 85.10,17.74 61.19,41.65"/><polygon points="70.38,26.93 70.98,11.09 80.69,1.37 83.08,14.23"/><polygon points="73.07,29.62 88.91,29.02 98.63,19.31 85.77,16.92"/></g></svg>